PathFileType	4	(X/Y/Z)	Kaydara	
DataRate	CameraRate	NumFrames	NumMarkers	Units	OrigDataRate	OrigDataStartFrame	OrigNumFrames	
60.00	60.00	4	74	mm	60.00	739	250	
Frame#	Time	N_lasi			N_rasi			N_rpsi			N_lpsi			N_fneck			N_bneck			N_fhead			N_rhead			N_lhead			N_rshld			N_relbtop			N_relbext			N_relblow			N_rwrext			N_rwrtop			N_rwrlow			N_lshld			N_lelbext			N_lelblow			N_lelbtop			N_lwrext			N_lwrtop			N_lwrlow			N_rtopleg			N_ltopleg			N_rkneefr			N_rkneebk			N_rkneeis			N_lkneefr			N_lknssbk			N_lkneeis			N_rankfr			N_rankis			N_rankbk			N_lankfr			N_lankbk			N_lankis			D_lasi			D_rasi			D_rpsi			D_lpsi			D_fneck			D_bneck			D_fhead			D_rhead			D_lhead			D_rshld			D_relbtop			D_relbext			D_relblow			D_rwrext			D_rwrtop			D_rwrlow			D_lshld			D_lelbext			D_lelblow			D_lelbtop			D_lwrext			D_lwrtop			D_lwrlow			D_rtopleg			D_ltopleg			D_rkneefr			D_rkneebk			D_rkneeis			D_lkneefr			D_lknssbk			D_lkneeis			D_rankfr			D_rankis			D_rankbk			D_lankfr			D_lankbk			D_lankis			
		X1	Y1	Z1	X2	Y2	Z2	X3	Y3	Z3	X4	Y4	Z4	X5	Y5	Z5	X6	Y6	Z6	X7	Y7	Z7	X8	Y8	Z8	X9	Y9	Z9	X10	Y10	Z10	X11	Y11	Z11	X12	Y12	Z12	X13	Y13	Z13	X14	Y14	Z14	X15	Y15	Z15	X16	Y16	Z16	X17	Y17	Z17	X18	Y18	Z18	X19	Y19	Z19	X20	Y20	Z20	X21	Y21	Z21	X22	Y22	Z22	X23	Y23	Z23	X24	Y24	Z24	X25	Y25	Z25	X26	Y26	Z26	X27	Y27	Z27	X28	Y28	Z28	X29	Y29	Z29	X30	Y30	Z30	X31	Y31	Z31	X32	Y32	Z32	X33	Y33	Z33	X34	Y34	Z34	X35	Y35	Z35	X36	Y36	Z36	X37	Y37	Z37	X38	Y38	Z38	X39	Y39	Z39	X40	Y40	Z40	X41	Y41	Z41	X42	Y42	Z42	X43	Y43	Z43	X44	Y44	Z44	X45	Y45	Z45	X46	Y46	Z46	X47	Y47	Z47	X48	Y48	Z48	X49	Y49	Z49	X50	Y50	Z50	X51	Y51	Z51	X52	Y52	Z52	X53	Y53	Z53	X54	Y54	Z54	X55	Y55	Z55	X56	Y56	Z56	X57	Y57	Z57	X58	Y58	Z58	X59	Y59	Z59	X60	Y60	Z60	X61	Y61	Z61	X62	Y62	Z62	X63	Y63	Z63	X64	Y64	Z64	X65	Y65	Z65	X66	Y66	Z66	X67	Y67	Z67	X68	Y68	Z68	X69	Y69	Z69	X70	Y70	Z70	X71	Y71	Z71	X72	Y72	Z72	X73	Y73	Z73	X74	Y74	Z74	

188	12.300	-633.89858	1108.79906	1194.75327	-797.22946	1138.42690	1386.63971	-1041.46576	1179.02847	1239.34364	-812.10129	1164.93347	971.10023	-746.18492	1537.81418	1145.38322	-848.98239	1638.69751	1175.58609	-613.73817	1709.60800	1234.80019	-815.13145	1744.86389	1250.39116	-733.81836	1726.69647	1115.44334	-962.02370	1491.05911	1390.69473	-1065.37720	1178.62991	1437.92389	-1054.43893	1152.51465	1540.75592	-984.46983	1185.50049	1473.14987	-995.57297	885.62553	1528.20984	-948.55827	892.85042	1536.49185	-926.50688	889.68407	1492.94586	-719.81880	1492.46964	953.07549	-683.93089	1145.77179	1012.11777	-597.89631	1171.77055	971.70677	-655.74860	1150.39368	911.08215	-558.12271	886.81679	1040.25711	-531.99291	898.20786	1078.84972	-576.52832	904.60403	1108.05809	-946.71219	983.46786	1421.21170	-749.75670	983.45154	974.12560	-786.66817	540.83290	1493.76236	-909.54681	562.08599	1413.52676	-773.17856	539.30016	1360.63339	-754.45641	496.23230	1219.89120	-820.65903	511.80260	1106.41403	-895.44495	509.92561	1227.68929	-998.84026	191.22890	1378.26141	-943.52318	191.69264	1320.16251	-1019.62746	210.38380	1283.34412	-830.73700	146.84506	1221.06972	-883.50334	142.99750	1157.48940	-902.97600	156.57902	1243.17543	-606.93607	1053.48938	-196.00111	-567.87739	1076.42311	-479.68575	-373.23368	1162.14157	-399.15627	-404.06998	1139.62372	-184.93851	-602.62318	1548.84293	-279.49207	-483.66886	1624.84787	-282.03196	-714.67987	1715.60760	-232.21167	-574.10156	1759.74548	-343.19633	-543.47317	1739.41360	-191.58981	-533.90377	1516.08215	-495.88970	-483.02650	1181.59584	-587.92747	-508.55412	1175.29808	-518.76034	-565.29503	1209.00154	-599.54571	-608.01346	958.38135	-623.94474	-661.98212	974.92210	-608.43147	-644.69719	974.97452	-555.51300	-474.78767	1494.08752	-69.14567	-480.71472	1158.91685	-113.44221	-491.13300	1191.05278	-17.39608	-424.83570	1160.11925	-54.41762	-529.67224	932.68036	-9.76235	-572.12879	944.77478	-16.61214	-575.41904	949.98909	-67.62254	-477.06966	1021.98212	-531.83578	-477.30568	1012.47101	-132.24252	-602.07474	487.53304	-568.12840	-510.92907	551.41312	-580.08167	-528.33763	514.56913	-459.80141	-601.07880	480.77259	-271.48466	-485.58445	496.90662	-253.84394	-562.88246	486.22894	-365.96119	-311.87597	264.31555	-539.17728	-301.30993	285.88545	-473.94505	-256.23116	322.43656	-534.64745	-584.10332	149.66231	-331.12209	-509.02500	133.52501	-328.68183	-562.17804	155.90909	-392.75871 
189	12.317	-622.84557	1108.52089	1196.21994	-782.12532	1138.72971	1391.49918	-1029.51744	1180.25223	1251.36459	-806.75446	1165.32104	977.57278	-735.17776	1537.92648	1153.74367	-837.97531	1638.80997	1183.94653	-601.72058	1708.70529	1240.44922	-802.96471	1744.70856	1258.73062	-723.38043	1726.55075	1122.66312	-948.50502	1491.17477	1400.34622	-1052.46658	1178.93051	1448.11951	-1041.41312	1152.61963	1550.59143	-971.32874	1185.40993	1482.62543	-983.68263	885.40489	1536.85150	-936.61621	892.30759	1545.30151	-914.79401	889.48540	1501.26938	-713.07487	1492.55478	959.00040	-670.43633	1146.31920	1023.43285	-585.73902	1174.48502	978.94966	-644.19022	1150.42015	919.88487	-538.23570	893.86856	1058.39760	-511.59763	907.74681	1095.98038	-555.98827	914.34090	1125.34256	-930.13161	984.06174	1431.37177	-745.36682	983.72070	978.89992	-761.64673	544.08234	1496.92078	-889.00131	559.90051	1423.81989	-755.54626	539.67163	1363.60245	-751.39603	495.23609	1221.97411	-818.39676	512.28203	1108.73413	-891.50543	509.83795	1231.27892	-960.37621	180.32801	1412.63199	-909.13803	181.01236	1351.64230	-988.34663	193.02586	1318.65417	-830.02487	146.33375	1221.01257	-883.48114	143.33214	1157.85683	-902.01958	156.65378	1243.85147	-614.78779	1054.35997	-191.31840	-582.36671	1077.98096	-475.56908	-385.25261	1162.48550	-399.56802	-411.81763	1139.66820	-184.73507	-611.85051	1549.72122	-276.55508	-493.12244	1625.81818	-280.90015	-723.54660	1716.11359	-227.71391	-584.87591	1760.49789	-341.08536	-551.64680	1740.47318	-190.04152	-545.01198	1516.75171	-494.07578	-490.56564	1183.50510	-585.16457	-515.47539	1176.17676	-516.91887	-573.15357	1209.03786	-598.43121	-607.37755	957.01057	-626.54083	-662.07138	971.80779	-612.02057	-645.95459	971.58661	-558.69843	-481.70204	1494.75906	-67.77452	-494.88258	1159.48807	-110.22089	-503.56441	1192.44522	-14.60568	-438.43067	1159.42909	-51.66882	-549.91699	935.65857	-4.90029	-592.01439	949.07539	-11.59706	-595.73280	954.08943	-62.47436	-493.45547	1023.40118	-529.51134	-484.27021	1012.54486	-130.90546	-631.01105	491.12759	-562.14386	-539.86916	553.86864	-578.08998	-551.92646	517.62756	-457.69592	-605.65166	480.11978	-270.30731	-490.20416	497.54433	-253.77731	-567.83215	486.01337	-365.05535	-342.39902	264.79488	-543.48137	-328.47130	286.98593	-478.93410	-285.72962	322.02843	-541.93665	-584.67571	149.38551	-330.98602	-509.49474	134.25479	-328.45985	-563.30345	155.87074	-392.82219 
190	12.333	-611.96789	1107.36916	1197.77969	-767.05811	1137.76115	1396.51337	-1017.32384	1179.42101	1261.65764	-801.79527	1165.43198	983.72955	-724.18404	1537.58057	1162.20436	-826.98151	1638.46405	1192.40723	-589.59713	1706.70166	1246.18446	-790.17601	1743.96454	1266.70090	-712.45117	1726.07422	1129.83025	-934.69269	1490.85953	1410.42419	-1039.75060	1179.03854	1458.55637	-1028.53745	1152.45300	1560.70084	-958.29330	1184.96864	1492.40723	-971.65352	884.56322	1545.29297	-924.60060	891.40793	1553.56674	-902.50763	888.79570	1510.53802	-706.16638	1492.16965	965.13855	-666.36200	1146.78818	1015.77950	-574.39156	1176.61201	986.24878	-633.21140	1149.91425	928.60550	-519.06895	900.94994	1075.82130	-491.68617	917.00951	1111.94496	-535.38464	924.07555	1142.06223	-914.04465	984.04297	1438.69919	-740.80223	984.08958	983.54256	-738.81767	545.81276	1497.87552	-869.65813	556.65237	1432.85751	-739.55833	538.13244	1365.09048	-747.92053	494.12571	1223.78632	-815.95467	512.59525	1110.00641	-887.36816	509.72767	1234.77966	-920.01968	170.38223	1445.92361	-872.94464	170.17900	1382.31750	-954.98123	175.50287	1353.96515	-829.42429	146.00934	1221.09352	-883.54355	143.64547	1158.30276	-900.60730	156.40142	1245.21309	-623.04779	1055.23666	-186.13405	-596.80119	1079.36394	-471.41857	-397.49081	1162.98378	-399.75960	-419.48338	1139.79271	-184.63732	-620.93552	1550.44281	-273.74151	-502.27318	1626.69739	-279.99052	-732.14935	1716.49796	-223.21291	-595.61623	1761.24084	-338.80985	-559.60873	1741.44348	-188.55577	-556.15559	1517.31766	-492.20722	-498.10726	1185.34248	-582.42241	-522.42599	1177.04849	-515.09029	-581.06808	1209.13231	-597.32147	-606.58161	956.16234	-628.88988	-662.03484	969.03458	-615.66292	-647.24571	968.56133	-561.92066	-488.40424	1495.61325	-66.55183	-508.65879	1160.53291	-107.07006	-515.10254	1194.08089	-11.84462	-451.28807	1159.02527	-49.21525	-569.60560	939.19594	-0.08753	-611.43372	953.93669	-6.22553	-615.60944	958.89984	-57.19636	-510.02983	1024.66309	-527.05490	-489.83032	1012.30507	-128.99920	-659.25034	494.62097	-554.82208	-568.02490	555.83134	-574.71294	-574.80240	519.99592	-454.56123	-609.56177	479.41315	-269.04915	-493.98197	498.14659	-253.83377	-573.28125	486.11153	-364.05304	-374.20189	263.23036	-547.25441	-356.84917	285.80954	-483.37746	-316.33612	319.29495	-548.50544	-585.27355	149.03435	-330.86575	-510.01617	134.22962	-329.29794	-564.29516	155.85723	-392.93243 
191	12.350	-602.02892	1105.43190	1198.99773	-752.00714	1135.94543	1401.63910	-1005.62950	1179.48685	1274.18861	-796.69807	1165.54634	990.22522	-712.89093	1537.29111	1170.63156	-815.68840	1638.17444	1200.83450	-577.20398	1704.45724	1251.51909	-777.45209	1743.23776	1274.86603	-701.31683	1725.31311	1136.89285	-920.41771	1490.13397	1420.35904	-1026.85135	1178.83224	1469.00696	-1015.45479	1151.92322	1570.84732	-945.02739	1184.11522	1502.24976	-959.66705	883.54851	1553.64258	-912.37457	890.06142	1561.58005	-890.86037	887.36435	1518.00735	-699.10103	1491.46042	971.26114	-657.68570	1147.14790	1018.53104	-563.11077	1178.22647	993.02803	-622.92061	1149.10973	937.66212	-500.35564	907.71988	1092.42920	-472.29683	925.90591	1126.98265	-514.96784	933.49091	1157.59361	-898.49312	982.51068	1445.80536	-736.45271	984.14352	988.55637	-718.29300	546.14666	1497.25937	-852.13455	552.26753	1440.74539	-725.56625	534.99390	1365.69901	-742.54524	493.09063	1223.63258	-813.53119	512.73167	1112.76711	-883.51418	510.25520	1238.56354	-878.24623	161.68344	1478.56400	-835.00946	159.92667	1413.22311	-918.14903	158.59076	1389.79996	-828.39447	145.70259	1221.07262	-883.42590	143.91572	1158.80371	-899.53331	156.38393	1246.13998	-630.46555	1055.71541	-181.28120	-611.06236	1080.29144	-467.14977	-409.72038	1163.47099	-399.90311	-427.11990	1139.87755	-184.54752	-629.92146	1551.00983	-270.87294	-511.59435	1627.29355	-278.99788	-740.55244	1716.74088	-218.63539	-606.19106	1761.76605	-336.91307	-567.50252	1742.25266	-187.09473	-567.32979	1517.75803	-490.39772	-505.85224	1187.13768	-579.76429	-529.47250	1177.89680	-513.36468	-588.97133	1209.22195	-596.33396	-606.06380	955.54565	-630.97569	-662.21695	966.62964	-619.09317	-648.12325	965.66551	-565.76912	-494.92432	1496.51413	-65.38542	-521.73794	1161.83182	-103.67164	-525.67638	1195.82733	-8.86168	-463.69968	1158.84529	-46.58606	-588.79066	943.20045	4.65692	-630.06413	959.38042	-0.84873	-634.84699	964.26308	-51.82039	-526.10981	1025.68748	-525.17262	-495.84755	1012.40494	-127.72862	-686.61423	497.92404	-546.04908	-595.41187	557.23289	-569.92790	-597.01393	521.70334	-450.02052	-613.15411	478.73505	-267.51045	-497.63184	498.63235	-253.60554	-577.92320	485.86296	-362.58198	-407.02866	259.95405	-549.82040	-386.36719	282.36050	-486.93066	-347.88719	314.46781	-554.27311	-585.78556	148.67845	-330.79216	-510.08533	134.44097	-329.61552	-565.15621	155.91602	-392.70790 
